<svg viewBox="0 0 96 96" xmlns="http://www.w3.org/2000/svg" xmlns:xlink="http://www.w3.org/1999/xlink" id="Icons_Bottle" overflow="hidden"><path d="M54.6 29.4 53.4 9 55 9 55 8C55 6.2 53.8 4.7 52.2 4.2 52 4.1 51.8 4 51.5 4L51 4 45 4 44.5 4C44.2 4 44 4.1 43.8 4.2 42.2 4.7 41 6.2 41 8L41 9 42.6 9 41.4 29.4C37.6 31.4 35 35.4 35 40L35 88C35 90.2 40.8 92 48 92 55.2 92 61 90.2 61 88L61 40C61 35.4 58.4 31.4 54.6 29.4ZM57 86.7C55.6 87.3 52.4 88 48 88 43.6 88 40.4 87.3 39 86.7L39 70 41.9 70C43.4 73.1 45.6 75 48 75 50.4 75 52.7 73.1 54.1 70L57 70 57 86.7ZM57 52 54.1 52C52.6 48.9 50.4 47 48 47 45.6 47 43.3 48.9 41.9 52L39 52 39 40C39 37 40.6 34.3 43.3 32.9L45.3 31.8 45.4 29.5 46.2 16 49.8 16 50.6 29.6 50.7 31.9 52.7 33C55.4 34.3 57 37 57 40L57 52Z" fill="#8E793E"/></svg>