<svg viewBox="0 0 96 96" xmlns="http://www.w3.org/2000/svg" xmlns:xlink="http://www.w3.org/1999/xlink" id="Icons_Motorcycle" overflow="hidden"><g><circle cx="53" cy="25" r="7" fill="#8E793E"/><circle cx="25" cy="67" r="11" fill="#8E793E"/><circle cx="71" cy="67" r="11" fill="#8E793E"/><path d="M51.2 48.8 46.2 48.3 50.9 40.2 61.6 46C61.5 46.1 61.5 46.2 61.4 46.3L53 51 53 50.8C53 49.8 52.2 48.9 51.2 48.8ZM71 53C72.9 53 74.7 53.4 76.3 54.1 77.3 52.3 78 50.2 78 48 78 41.4 72.6 36 66 36 64.6 36 63.3 36.3 62 36.7 62.5 37.7 62.8 38.8 62.9 40L49.4 32.6C49.2 32.5 49 32.4 48.8 32.4 46.5 31.5 43.9 32.3 42.6 34.5L35.6 46.5C35.5 46.7 35.4 47 35.3 47.2L14 45 14 49 29 53.6C34.8 55.3 39 60.7 39 67 39 68.4 38.8 69.7 38.4 71L57.6 71C57.2 69.7 57 68.4 57 67 57 59.3 63.3 53 71 53Z" fill="#8E793E"/></g></svg>