<svg viewBox="0 0 96 96" xmlns="http://www.w3.org/2000/svg" xmlns:xlink="http://www.w3.org/1999/xlink" id="Icons_Scooter" overflow="hidden"><path d="M16.64 62C17.4574 66.6171 21.8629 69.6974 26.48 68.88 29.9903 68.2585 32.7385 65.5103 33.36 62Z" fill="#8E793E"/><path d="M45.27 40 17 40C15.64 40 12.84 39.13 12.84 36.5 12.84 36.5 12.3 33 13.67 33L41.11 33C44.43 33 46.64 40 45.27 40Z" fill="#8E793E"/><path d="M76.12 42.42 72.51 33.81C72.9366 33.9298 73.377 33.9936 73.82 34L78.5 34 78.5 26 73.82 26C72.2537 25.973 70.7753 26.7216 69.87 28L61.5 28 61.5 32 67.5 32C68.83 35.38 69 40.32 69 43.49 68.9956 44.0653 68.9555 44.6397 68.88 45.21L68.88 45.29C68.9009 45.3584 68.9009 45.4316 68.88 45.5 68.0555 52.3375 61.8443 57.2119 55.0068 56.3874 48.5498 55.6088 43.7755 49.9984 44.04 43.5 44.04 43.33 44.04 43.17 44.04 43.01L16.49 43.01C12.9672 45.7334 11.0232 50.0258 11.3 54.47 11.3091 54.6523 11.3497 54.8316 11.42 55L7.8 55 6.11 59 40.24 59C40.33 59.14 40.41 59.29 40.51 59.42L42.77 62.25C44.08 64.091 46.2442 65.1296 48.5 65L69.42 65C67.0263 59.123 69.85 52.4183 75.7269 50.0246 80.6609 48.0149 86.3293 49.6606 89.42 54L89.78 54C88 46.05 81.27 43.33 76.12 42.42Z" fill="#8E793E"/><circle cx="80" cy="60.51" r="8.5" fill="#8E793E"/></svg>