<svg width="331" height="331" xmlns="http://www.w3.org/2000/svg" xmlns:xlink="http://www.w3.org/1999/xlink" overflow="hidden"><defs><clipPath id="clip0"><path d="M101 409 432 409 432 740 101 740Z" fill-rule="evenodd" clip-rule="evenodd"/></clipPath><clipPath id="clip1"><path d="M228 451 431 451 431 671 228 671Z" fill-rule="evenodd" clip-rule="evenodd"/></clipPath><clipPath id="clip2"><path d="M228 451 431 451 431 671 228 671Z" fill-rule="evenodd" clip-rule="evenodd"/></clipPath><clipPath id="clip3"><path d="M228 451 446 451 446 671 228 671Z" fill-rule="evenodd" clip-rule="evenodd"/></clipPath><clipPath id="clip4"><path d="M102 410 287 410 287 630 102 630Z" fill-rule="evenodd" clip-rule="evenodd"/></clipPath><clipPath id="clip5"><path d="M102 410 287 410 287 630 102 630Z" fill-rule="evenodd" clip-rule="evenodd"/></clipPath><clipPath id="clip6"><path d="M71 410 287 410 287 630 71 630Z" fill-rule="evenodd" clip-rule="evenodd"/></clipPath><clipPath id="clip7"><path d="M140 539 337 539 337 739 140 739Z" fill-rule="evenodd" clip-rule="evenodd"/></clipPath><clipPath id="clip8"><path d="M140 539 338 539 338 739 140 739Z" fill-rule="evenodd" clip-rule="evenodd"/></clipPath><clipPath id="clip9"><path d="M140 539 338 539 338 739 140 739Z" fill-rule="evenodd" clip-rule="evenodd"/></clipPath></defs><g clip-path="url(#clip0)" transform="translate(-101 -409)"><g clip-path="url(#clip1)"><g clip-path="url(#clip2)"><g clip-path="url(#clip3)"><path d="M153.766 121.656C148.113 127.536 139.973 131.154 131.154 131.154 122.335 131.154 114.194 127.536 108.541 121.656 102.888 127.536 94.7473 131.154 85.9283 131.154 77.1094 131.154 68.9688 127.536 63.3156 121.656 57.6624 127.536 49.5219 131.154 40.7029 131.154 39.3461 131.154 37.9894 130.928 36.4065 130.928L54.2705 187.686 162.812 187.686 180.676 130.928C179.093 130.928 177.736 131.154 176.379 131.154 167.56 131.154 159.42 127.536 153.766 121.656Z" transform="matrix(1 0 -0 1.01344 228 451)"/><path d="M154.671 75.7526 145.174 84.7977C143.365 86.6067 140.425 86.3806 138.842 84.5716 137.938 83.6671 137.711 82.5364 137.711 81.4058 137.711 80.2752 138.164 78.9184 139.068 78.0139L148.566 68.9688C150.375 67.1598 153.314 67.3859 154.897 69.1949 156.48 71.0039 156.48 73.9436 154.671 75.7526ZM123.013 55.8534C122.109 56.7579 120.978 56.9841 119.847 56.9841 118.717 56.9841 117.36 56.5318 116.456 55.6273L107.41 46.1299C105.601 44.3209 105.828 41.3813 107.637 39.7984 109.446 37.9894 112.385 38.2155 113.968 40.0245L123.013 49.5219C124.822 51.3309 124.822 54.0444 123.013 55.8534ZM98.1392 91.5815C96.3302 93.3905 93.3905 93.1644 91.8076 91.3554L82.7626 81.858C80.9535 80.049 81.1797 77.1094 82.9887 75.5265 83.8932 74.622 85.0238 74.3959 86.1545 74.3959 87.2851 74.3959 88.6419 74.8481 89.5464 75.7526L98.5915 85.25C99.9482 86.8328 99.9482 89.7725 98.1392 91.5815ZM73.7175 59.9237 64.2201 68.9688C62.4111 70.7778 59.4715 70.5517 57.8886 68.7427 56.0795 66.9336 56.3057 63.994 58.1147 62.4111L67.612 53.366C69.4211 51.557 72.3607 51.7831 73.9436 53.5921 74.8481 54.4967 75.0742 55.6273 75.0742 56.7579 75.0742 57.6624 74.622 59.0192 73.7175 59.9237ZM182.032 77.5616C172.535 47.0345 143.139 24.874 108.541 24.874 73.9436 24.874 44.5471 47.0345 35.0497 77.5616 25.3262 80.049 18.0902 88.868 18.0902 99.496 18.0902 111.933 28.2659 122.109 40.7029 122.109 53.1399 122.109 63.3156 111.933 63.3156 99.496 63.3156 111.933 73.4913 122.109 85.9283 122.109 98.3653 122.109 108.541 111.933 108.541 99.496 108.541 111.933 118.717 122.109 131.154 122.109 143.591 122.109 153.766 111.933 153.766 99.496 153.766 111.933 163.942 122.109 176.379 122.109 188.816 122.109 198.992 111.933 198.992 99.496 198.992 88.868 191.756 80.049 182.032 77.5616Z" transform="matrix(1 0 -0 1.01344 228 451)"/></g></g></g><g clip-path="url(#clip4)"><g clip-path="url(#clip5)"><g clip-path="url(#clip6)"><path d="M165.284 79.2733C167.529 75.2311 168.203 70.5151 167.08 66.0237 171.123 60.4094 172.021 52.9986 168.428 46.4861 167.529 44.9141 166.631 43.5667 165.284 42.4438 168.428 43.3421 170.898 45.8124 172.021 49.4055 172.021 49.6301 172.021 49.8546 172.021 50.0792 176.288 50.3038 179.881 53.2232 181.228 57.2654 182.8 62.6551 179.656 68.2694 174.267 69.8414 175.165 72.7608 174.491 75.6802 172.919 78.1505 170.449 78.3751 166.182 79.2733 165.284 79.2733ZM150.462 183.025 137.662 183.025 145.072 95.667C153.606 94.7687 161.017 93.6458 167.08 92.523L150.462 183.025ZM128.679 183.025 112.285 183.025 112.285 97.6881C120.819 97.6881 128.679 97.239 136.09 96.5653L128.679 183.025ZM107.345 62.4306C109.366 61.0831 111.836 60.634 114.306 61.0831 114.306 60.8586 114.531 60.8586 114.531 60.634 117.226 56.3672 122.615 55.2443 126.882 57.7146 131.149 60.1849 132.272 65.7991 129.802 70.066 129.802 70.2905 129.577 70.2905 129.577 70.5151 131.823 73.4345 132.272 77.4768 130.251 80.8453 129.577 81.9682 128.679 82.8665 127.556 83.5402 126.209 83.5402 117.226 83.9893 110.264 83.9893 111.611 81.2945 112.51 78.3751 112.51 75.0065 112.285 70.2905 110.489 65.7991 107.345 62.4306ZM103.302 183.025 86.9087 183.025 79.4979 96.5653C86.6842 97.239 94.7687 97.4635 103.302 97.6881L103.302 183.025ZM65.35 183.025 50.3038 92.7476C55.918 93.8704 62.6551 94.7687 70.5151 95.667L77.9259 183.025 65.35 183.025ZM42.6684 72.9854C42.6684 67.8203 46.9352 63.5534 52.1003 63.5534 53.2232 63.5534 54.346 63.778 55.2443 64.2271 55.2443 64.0026 55.2443 63.778 55.2443 63.5534 55.2443 58.3883 53.4477 54.1215 58.6129 54.1215 59.2866 54.1215 59.7357 54.1215 60.1849 54.346 60.1849 54.5706 60.4094 54.7952 60.4094 55.0197 60.8586 55.6935 61.0831 56.3672 61.5323 56.8163 61.5323 59.5111 62.4306 62.206 63.5534 64.9008 61.5323 68.0448 60.1849 71.6379 60.1849 75.6802 60.1849 77.7013 60.4094 79.4979 61.0831 81.519 53.8969 80.3962 48.0581 79.2733 43.5667 78.3751 43.1175 76.3539 42.6684 74.7819 42.6684 72.9854ZM72.7608 36.3804C73.4345 35.9313 74.1082 35.7067 74.7819 35.4821 75.4556 33.0118 77.2522 30.7661 79.7225 29.4187 84.8876 26.7239 91.1756 28.5204 93.8704 33.6856 94.095 34.1347 94.3196 34.8084 94.5441 35.2575 98.3618 35.033 102.404 37.0541 104.201 40.6472 106.671 45.1386 105.324 50.7529 101.506 53.6723 97.9127 49.1809 92.523 46.2615 86.4596 46.2615 80.1716 46.2615 74.5574 49.4055 71.1888 54.1215 71.1888 53.8969 71.1888 53.8969 71.1888 53.6723 70.2905 52.774 69.3922 51.8758 68.7185 50.5283 65.7991 45.3632 67.8203 39.0752 72.7608 36.3804ZM98.1373 83.9893C88.7053 83.7647 80.1716 83.091 72.7608 82.4173 70.9642 80.6208 69.8414 78.1505 69.8414 75.2311 69.8414 70.7397 72.7608 67.1465 76.5785 65.7991 76.5785 65.5745 76.5785 65.35 76.5785 65.1254 76.5785 59.5111 81.0699 55.0197 86.6842 55.0197 92.2984 55.0197 96.7898 59.5111 96.7898 65.1254 96.7898 65.35 96.7898 65.5745 96.7898 65.7991 100.832 67.1465 103.527 70.9642 103.527 75.2311 103.302 79.0488 101.057 82.4173 98.1373 83.9893ZM114.98 36.3804C116.103 36.3804 117.226 36.605 118.124 37.0541 118.124 36.8295 118.124 36.605 118.124 36.3804 118.124 31.2153 122.391 26.9484 127.556 26.9484 132.721 26.9484 136.988 31.2153 136.988 36.3804 136.988 36.605 136.988 36.8295 136.988 37.0541 136.988 37.0541 136.988 37.0541 136.763 37.0541 133.844 37.0541 130.7 37.7278 128.23 39.2998 124.861 41.0964 122.166 44.0158 120.37 47.6089 118.124 47.8335 115.878 48.5072 113.633 49.4055 114.531 45.1386 113.857 40.8718 112.061 37.0541 113.408 36.605 114.306 36.3804 114.98 36.3804ZM144.848 50.3038C145.746 48.9563 146.644 48.0581 148.216 47.1598 152.708 44.6895 158.322 46.4861 160.568 50.7529 163.038 55.2443 161.242 60.8586 156.975 63.1043 156.526 63.3288 156.076 63.5534 155.852 63.5534 156.526 64.2271 157.199 64.9008 157.648 65.7991 160.119 70.2905 158.322 75.9048 154.055 78.1505 150.462 79.9471 146.42 79.4979 143.5 76.8031 143.051 77.2522 142.378 77.7013 141.704 78.1505 141.255 78.3751 140.806 78.5996 140.132 78.8242 140.581 75.9048 140.356 72.7608 139.458 69.8414 141.704 62.4306 138.56 53.8969 131.823 49.6301 131.374 49.4055 130.925 49.1809 130.251 48.9563 130.925 48.0581 131.823 47.3843 132.946 46.7106 136.988 44.9141 142.153 46.2615 144.848 50.3038ZM189.987 54.7952C188.415 48.9563 184.148 44.4649 178.758 42.4438 174.491 35.2575 165.733 31.4399 157.199 33.9101 154.729 34.5838 152.483 35.9313 150.462 37.5033 149.788 37.5033 149.115 37.7278 148.666 37.7278 147.992 36.8295 147.318 36.1558 146.42 35.4821 145.746 25.601 137.662 17.9656 127.781 17.9656 120.594 17.9656 114.531 22.0079 111.387 27.8467 109.59 28.2959 108.018 28.745 106.446 29.6433 104.65 28.2959 102.404 27.173 100.158 26.7239 96.5653 22.0079 90.951 19.0885 84.663 19.0885 81.519 19.0885 78.1505 19.9868 75.4556 21.3342 72.3117 23.1307 69.6168 25.601 68.0448 28.5204 62.206 31.889 58.6129 38.177 58.3883 44.6895 51.4266 44.9141 48.5072 48.5072 48.5072 54.5706 39.9735 56.3672 33.6856 63.778 33.6856 72.7608 33.6856 73.6591 33.6856 75.0065 33.6856 75.0065L53.8969 196.275 161.691 196.275 184.148 75.0065 183.474 74.5574C189.313 70.066 192.008 62.206 189.987 54.7952Z" transform="matrix(1 0 -0 1.02047 71.4124 410)"/></g></g></g><g clip-path="url(#clip7)"><g clip-path="url(#clip8)"><g clip-path="url(#clip9)"><path d="M176.479 72.6438C176.479 72.6438 176.479 72.6438 176.479 72.6438 176.479 72.6438 176.479 72.6438 176.479 72.6438 169.502 51.7125 154.932 34.8854 135.232 25.0354 115.737 15.1854 93.3698 13.749 72.6438 20.5208L72.6438 20.5208C51.9177 27.4979 34.8854 42.0677 25.2406 61.5625 15.1854 81.2625 13.749 103.63 20.5208 124.356 27.0875 144.261 41.8625 161.499 60.7417 171.349 72.4385 177.505 85.3667 180.583 98.2948 180.583 107.119 180.583 115.737 179.147 124.356 176.274 155.137 166.014 176.479 139.336 179.968 107.734 181.404 96.2427 180.173 84.1354 176.479 72.6438ZM142.825 81.6729 151.444 73.0542C153.085 71.4125 155.548 71.4125 157.19 73.0542 158.831 74.6958 158.831 77.1583 157.19 78.8L148.571 87.4187C147.75 88.2396 146.724 88.65 145.698 88.65 144.672 88.65 143.646 88.2396 142.825 87.4187 141.183 85.9823 141.183 83.3146 142.825 81.6729ZM116.148 40.0156C117.79 38.374 120.457 38.5792 121.894 40.2208L130.102 48.8396C131.744 50.4812 131.539 53.149 129.897 54.5854 129.076 55.4062 128.05 55.6115 127.024 55.6115 125.998 55.6115 124.767 55.201 123.946 54.3802L115.737 45.7615C114.506 44.325 114.506 41.6573 116.148 40.0156ZM98.5 75.5167C101.989 75.5167 105.477 76.3375 108.76 77.9792 114.301 80.6469 118.405 85.3667 120.252 91.3177 122.099 97.2688 121.689 103.425 119.021 108.966 116.353 114.506 111.633 118.61 105.682 120.457 93.575 124.561 80.6469 117.995 76.5427 105.887 74.6958 100.142 75.1062 93.7802 77.774 88.2396 80.4417 82.699 85.1615 78.5948 91.1125 76.7479 93.575 75.9271 96.0375 75.5167 98.5 75.5167ZM68.95 48.8396 77.5687 40.2208C79.2104 38.5792 81.6729 38.5792 83.3146 40.2208 84.9563 41.8625 84.9563 44.325 83.3146 45.9667L74.6958 54.5854C73.875 55.4062 72.849 55.8167 71.8229 55.8167 70.7969 55.8167 69.7708 55.4062 68.95 54.5854 67.3083 53.149 67.3083 50.4812 68.95 48.8396ZM40.2208 78.8C38.5792 77.1583 38.5792 74.6958 40.2208 73.0542 41.8625 71.4125 44.325 71.4125 45.9667 73.0542L54.5854 81.6729C56.2271 83.3146 56.2271 85.7771 54.5854 87.4187 53.7646 88.2396 52.7385 88.65 51.7125 88.65 50.6865 88.65 49.6604 88.2396 48.8396 87.4187L40.2208 78.8ZM46.5823 127.64C45.5563 127.64 44.5302 127.229 43.7094 126.408 42.0677 124.767 42.0677 122.304 43.7094 120.662L52.3281 112.044C53.9698 110.402 56.4323 110.402 58.074 112.044 59.7156 113.685 59.7156 116.148 58.074 117.79L49.4552 126.408C48.8396 127.229 47.8135 127.64 46.5823 127.64ZM164.577 131.539C155.753 149.186 140.568 162.32 121.894 168.476 121.894 168.476 121.894 168.476 121.894 168.476 102.604 175.043 82.2885 173.401 64.6406 164.167 62.3833 162.935 60.3312 161.704 58.2792 160.473 64.8458 160.268 69.976 155.343 69.976 143.851 69.7708 132.77 96.2427 132.154 96.6531 143.851 97.6792 168.476 149.392 154.727 147.955 115.122 147.545 101.168 164.372 100.962 164.372 108.966 164.372 115.532 167.245 117.995 170.118 117.79 168.681 122.304 166.834 127.024 164.577 131.539Z" fill="#8E793E" transform="matrix(1 0 -0 1.01523 140 539)"/></g></g></g></g></svg>