<svg width="312" height="187" xmlns="http://www.w3.org/2000/svg" xmlns:xlink="http://www.w3.org/1999/xlink" overflow="hidden"><defs><clipPath id="clip0"><path d="M297 438 609 438 609 625 297 625Z" fill-rule="evenodd" clip-rule="evenodd"/></clipPath></defs><g clip-path="url(#clip0)" transform="translate(-297 -438)"><path d="M488 489.618 488 508.09C487.999 508.446 487.712 508.733 487.357 508.734L486.899 508.734 486.899 604.96C486.899 610.505 482.41 615 476.873 615L416.832 615C411.296 614.999 406.808 610.505 406.809 604.961 406.809 604.96 406.809 604.96 406.809 604.96L406.809 512.109 406.477 512.109C406.227 512.109 406.024 511.907 406.022 511.656L406.022 501.144C406.022 500.892 406.226 500.688 406.477 500.688 406.477 500.688 406.477 500.688 406.477 500.688L406.809 500.688 406.809 496.728 406.475 496.728C406.212 496.727 405.999 496.513 406 496.25L406 485.881C406.001 485.619 406.213 485.406 406.475 485.405L406.809 485.405 406.809 480 406.469 480C406.237 480 406.048 479.812 406.048 479.579 406.048 479.579 406.048 479.579 406.048 479.578L406.048 473.92C406.047 473.686 406.236 473.496 406.469 473.495L406.809 473.495 406.809 462.037C406.809 456.494 411.297 452 416.832 452L476.873 452C482.409 452 486.898 456.493 486.899 462.037L486.899 488.974 487.357 488.974C487.712 488.976 487.999 489.263 488 489.618Z" fill="#3F3D56" fill-rule="evenodd"/><path d="M411 464 482 464 482 610 411 610Z" fill="#8E793E" fill-rule="evenodd"/><path d="M392.5 538.5 515.5 479.5" stroke="#FFFFFF" stroke-miterlimit="8" fill="none" fill-rule="evenodd"/><path d="M425.5 445.5 468.5 502.5" stroke="#FFFFFF" stroke-miterlimit="8" fill="none" fill-rule="evenodd"/><path d="M389.5 465.5 434.5 518.5" stroke="#FFFFFF" stroke-miterlimit="8" fill="none" fill-rule="evenodd"/><path d="M421.5 524.5 491.5 618.5" stroke="#FFFFFF" stroke-miterlimit="8" fill="none" fill-rule="evenodd"/><path d="M387.5 604.5 445.5 556.5" stroke="#FFFFFF" stroke-miterlimit="8" fill="none" fill-rule="evenodd"/><path d="M499.5 530.5 456.5 571.5" stroke="#FFFFFF" stroke-miterlimit="8" fill="none" fill-rule="evenodd"/><path d="M452 591.5C452 593.985 449.761 596 447 596 444.239 596 442 593.985 442 591.5 442 589.015 444.239 587 447 587 449.761 587 452 589.015 452 591.5Z" fill="#DBDBDB" fill-rule="evenodd"/><path d="M439 462C439 462.552 438.552 463 438 463 437.448 463 437 462.552 437 462 437 461.448 437.448 461 438 461 438.552 461 439 461.448 439 462Z" fill="#DBDBDB" fill-rule="evenodd"/><path d="M456.709 461C456.87 461 457 461.18 457 461.401L457 462.599C457 462.82 456.87 463 456.709 463L442.291 463C442.13 463 442 462.82 442 462.599L442 461.401C442 461.18 442.13 461 442.291 461Z" fill="#DBDBDB" fill-rule="evenodd"/><path d="M461 515.095C461 522.636 447.504 544 447.504 544 447.504 544 434.007 522.646 434.007 515.095 433.77 507.555 439.617 501.247 447.067 501.007 454.517 500.767 460.749 506.685 460.986 514.225 460.996 514.515 460.996 514.805 460.986 515.095Z" fill-rule="evenodd"/><path d="M451 514.5C451 516.985 449.209 519 447 519 444.791 519 443 516.985 443 514.5 443 512.015 444.791 510 447 510 449.209 510 451 512.015 451 514.5Z" fill-rule="evenodd"/><path d="M458 516.688C458 522.51 447.501 539 447.501 539 447.501 539 437.001 522.504 437.001 516.688 436.922 510.865 441.558 506.08 447.356 506.001 453.154 505.922 457.919 510.577 457.998 516.4 457.999 516.496 457.999 516.592 457.998 516.688Z" fill="#FF5252" fill-rule="evenodd"/><path d="M450 516C450 517.657 448.657 519 447 519 445.343 519 444 517.657 444 516 444 514.343 445.343 513 447 513 448.657 513 450 514.343 450 516Z" fill="#FFFFFF" fill-rule="evenodd"/><path d="M547 591.626 510.822 603 465.817 574.462 465.815 574.46 465.667 574.368 465.643 574.352 465.285 574.127 461 571.417C461.008 571.344 461.018 571.273 461.032 571.204 461.098 570.869 461.25 570.557 461.473 570.3 461.551 570.208 461.636 570.122 461.728 570.044L461.73 570.044C461.77 570.01 461.813 569.975 461.857 569.942 461.902 569.908 461.948 569.875 461.997 569.845 462.825 569.286 464.074 569.049 465.376 568.978 468.187 568.843 470.984 569.453 473.487 570.745 478.546 573.316 489.419 578.375 491.115 575.276 493.339 571.214 468.074 525.921 468.074 525.921 465.994 520.549 467.516 518.794 468.47 518.242 468.498 518.225 468.527 518.209 468.553 518.195 468.654 518.143 468.759 518.098 468.867 518.061 468.923 518.04 468.98 518.023 469.038 518.01 469.053 518.006 469.069 518.003 469.085 518L472.436 522.477 472.486 522.544 472.666 522.785 472.721 522.858 493.035 549.989C524.161 533.131 534.873 578.221 534.873 578.221Z" fill="#FBBEBE" fill-rule="evenodd"/></g></svg>